<?xml version="1.0" encoding="UTF-8" standalone="no"?>
<svg
   xmlns:dc="http://purl.org/dc/elements/1.1/"
   xmlns:cc="http://creativecommons.org/ns#"
   xmlns:rdf="http://www.w3.org/1999/02/22-rdf-syntax-ns#"
   xmlns:svg="http://www.w3.org/2000/svg"
   xmlns="http://www.w3.org/2000/svg"
   xmlns:xlink="http://www.w3.org/1999/xlink"
   xmlns:sodipodi="http://sodipodi.sourceforge.net/DTD/sodipodi-0.dtd"
   xmlns:inkscape="http://www.inkscape.org/namespaces/inkscape"
   width="512"
   height="512"
   viewBox="0 0 512 512"
   version="1.1"
   id="SVGRoot"
   inkscape:version="1.0.2-2 (e86c870879, 2021-01-15)"
   sodipodi:docname="SB_Icon-GPF1.svg"
   inkscape:export-filename="C:\Users\madson.silva\Documents\Projects\qsr-cadsichter\public\icons\cs-icon-01.png"
   inkscape:export-xdpi="96"
   inkscape:export-ydpi="96">
  <title
     id="title6645">SB Ícone</title>
  <sodipodi:namedview
     id="base"
     pagecolor="#ffffff"
     bordercolor="#666666"
     borderopacity="1.0"
     inkscape:pageopacity="0.0"
     inkscape:pageshadow="2"
     inkscape:zoom="0.50000003"
     inkscape:cx="-637.89644"
     inkscape:cy="-4158.2677"
     inkscape:document-units="px"
     inkscape:current-layer="layer2"
     showgrid="true"
     inkscape:pagecheckerboard="true"
     inkscape:showpageshadow="true"
     showborder="true"
     inkscape:window-width="2560"
     inkscape:window-height="1017"
     inkscape:window-x="-8"
     inkscape:window-y="-8"
     inkscape:window-maximized="1"
     inkscape:grid-bbox="true"
     inkscape:document-rotation="0">
    <inkscape:grid
       enabled="true"
       opacity="0.2745098"
       color="#2c9000"
       spacingy="25"
       spacingx="25"
       units="mm"
       empspacing="4"
       empopacity="0.74509804"
       empcolor="#ff0000"
       id="grid4131"
       type="xygrid" />
    <inkscape:grid
       enabled="true"
       empspacing="10"
       empopacity="0.28235294"
       empcolor="#000000"
       opacity="0.23529412"
       color="#0000ff"
       spacingy="1"
       spacingx="1"
       units="mm"
       id="grid4133"
       type="xygrid" />
    <inkscape:grid
       enabled="false"
       opacity="0.31372549"
       color="#3f3fff"
       empopacity="0.39215686"
       empcolor="#000000"
       empspacing="10"
       units="mm"
       id="grid4170"
       type="axonomgrid" />
  </sodipodi:namedview>
  <defs
     id="defs2">
    <linearGradient
       inkscape:collect="always"
       id="linearGradient4176">
      <stop
         style="stop-color:#e6464b;stop-opacity:1"
         offset="0"
         id="stop4172" />
      <stop
         style="stop-color:#e61e23;stop-opacity:1"
         offset="1"
         id="stop4174" />
    </linearGradient>
    <linearGradient
       inkscape:collect="always"
       id="linearGradient4158-1">
      <stop
         style="stop-color:#eceff1;stop-opacity:1"
         offset="0"
         id="stop4154" />
      <stop
         style="stop-color:#cfd8dc;stop-opacity:1"
         offset="1"
         id="stop4156" />
    </linearGradient>
    <linearGradient
       inkscape:collect="always"
       id="linearGradient4292">
      <stop
         style="stop-color:#dc3026;stop-opacity:1;"
         offset="0"
         id="stop4288" />
      <stop
         style="stop-color:#870000;stop-opacity:1"
         offset="1"
         id="stop4290" />
    </linearGradient>
    <inkscape:path-effect
       effect="taper_stroke"
       id="path-effect6748"
       is_visible="true"
       stroke_width="0.7"
       attach_start="0.6"
       end_offset="0.2"
       smoothing="0.5"
       jointype="round"
       miter_limit="100"
       lpeversion="0" />
    <linearGradient
       inkscape:collect="always"
       xlink:href="#linearGradient4176"
       id="linearGradient4294"
       x1="9"
       y1="11"
       x2="9"
       y2="22"
       gradientUnits="userSpaceOnUse"
       gradientTransform="matrix(0.9254881,0,0,0.92548807,1.7016443,0.90813154)" />
    <linearGradient
       inkscape:collect="always"
       xlink:href="#linearGradient4176"
       id="linearGradient4302"
       x1="12"
       y1="11"
       x2="12"
       y2="21"
       gradientUnits="userSpaceOnUse"
       gradientTransform="matrix(0.9254881,0,0,0.92548807,1.7016443,0.90813154)" />
    <linearGradient
       gradientTransform="translate(-8.512909,-10.611858)"
       inkscape:collect="always"
       xlink:href="#linearGradient4292"
       id="linearGradient4294-5"
       x1="9"
       y1="11"
       x2="9"
       y2="22"
       gradientUnits="userSpaceOnUse" />
    <linearGradient
       gradientTransform="translate(-8.512909,-10.611858)"
       inkscape:collect="always"
       xlink:href="#linearGradient4292"
       id="linearGradient4302-4"
       x1="12"
       y1="11"
       x2="12"
       y2="21"
       gradientUnits="userSpaceOnUse" />
    <linearGradient
       inkscape:collect="always"
       xlink:href="#linearGradient4176"
       id="linearGradient4339"
       gradientUnits="userSpaceOnUse"
       x1="10.027118"
       y1="10.904366"
       x2="10.027118"
       y2="21.709469"
       gradientTransform="matrix(0.9254881,0,0,0.92548807,0.72001527,0.90813154)" />
    <linearGradient
       inkscape:collect="always"
       xlink:href="#linearGradient4176"
       id="linearGradient4341"
       gradientUnits="userSpaceOnUse"
       x1="11.107628"
       y1="10.904366"
       x2="11.107628"
       y2="21.709469"
       gradientTransform="matrix(0.9254881,0,0,0.92548807,0.72001527,0.90813154)" />
    <linearGradient
       inkscape:collect="always"
       xlink:href="#linearGradient4158-1"
       id="linearGradient4230"
       gradientUnits="userSpaceOnUse"
       x1="9"
       y1="2"
       x2="14"
       y2="7" />
  </defs>
  <metadata
     id="metadata5">
    <rdf:RDF>
      <cc:Work
         rdf:about="">
        <dc:format>image/svg+xml</dc:format>
        <dc:type
           rdf:resource="http://purl.org/dc/dcmitype/StillImage" />
        <dc:title>SB Ícone</dc:title>
      </cc:Work>
    </rdf:RDF>
  </metadata>
  <g
     style="display:inline"
     id="layer1"
     inkscape:groupmode="layer"
     inkscape:label="Workspace" />
  <g
     inkscape:label="Layer 1"
     id="layer2"
     inkscape:groupmode="layer">
    <path
       style="opacity:1;fill:url(#linearGradient4230);fill-opacity:1;fill-rule:nonzero;stroke:none;stroke-width:0.344875;stroke-linecap:butt;stroke-linejoin:miter;stroke-miterlimit:4;stroke-dasharray:none;stroke-dashoffset:0;stroke-opacity:1;paint-order:markers fill stroke"
       id="path4977-4-4-2"
       sodipodi:type="arc"
       sodipodi:cx="179.5097"
       sodipodi:cy="65.658707"
       sodipodi:rx="59.210102"
       sodipodi:ry="59.658703"
       sodipodi:start="0"
       sodipodi:end="6.2732718"
       sodipodi:open="true"
       d="M 238.71981,65.658707 A 59.210102,59.658703 0 0 1 179.65645,125.31723 59.210102,59.658703 0 0 1 120.30033,65.954419 59.210102,59.658703 0 0 1 179.06947,6.0016528 59.210102,59.658703 0 0 1 238.7169,65.067289"
       sodipodi:arc-type="arc" />
    <path
       id="path4250"
       style="opacity:1;vector-effect:none;fill:url(#linearGradient4294);fill-opacity:1;stroke:url(#linearGradient4302);stroke-width:0.592315;stroke-linecap:butt;stroke-linejoin:miter;stroke-miterlimit:4;stroke-dasharray:none;stroke-dashoffset:0;stroke-opacity:1"
       d="m 328.42562,237.4929 c 12.53027,-4.33834 17.7198,-11.00254 17.87665,-22.95588 0.13376,-11.35248 -5.84444,-19.15785 -17.13656,-22.31802 -6.28912,-1.76115 -34.05447,-1.58665 -35.85125,0.2138 -2.07286,2.08863 -2.01991,44.54781 0.0735,46.72883 2.1541,2.25936 27.12976,1.0673 35.05113,-1.67605 z m 8.20371,69.38142 c 12.75573,-3.96971 18.73287,-11.67196 18.75265,-24.16431 10e-4,-6.16833 -4.6067,-14.47669 -10.17947,-18.32083 -2.63777,-1.81816 -7.87933,-4.10189 -11.65122,-5.07312 -9.33487,-2.4053 -34.13433,-3.74024 -38.37935,-2.06724 l -3.29472,1.29804 v 24.03052 c 0,25.93639 0.0237,26.01991 6.59073,27.14034 7.63727,1.30242 30.25465,-0.38306 38.162,-2.84293 z m -64.82518,19.6508 -5.09285,-0.44082 v -76.08686 -76.08679 l 38.64637,0.46568 c 32.39021,0.39117 39.65637,0.801 44.8848,2.53326 14.693,4.87248 21.82524,15.17236 21.87452,31.58856 0.0484,14.53622 -7.13698,25.40613 -20.06824,30.38217 -4.03424,1.55152 -5.0883,2.52972 -4.80832,4.45146 0.28237,1.85022 2.06583,2.97455 7.21808,4.50976 13.28802,3.9641 22.97055,11.79192 26.25618,21.22614 0.88729,2.54749 1.61004,8.98051 1.61004,14.29627 -10e-4,8.10395 -0.54002,10.7681 -3.31943,16.49418 -4.06597,8.37243 -10.76776,14.65043 -20.57774,19.27623 -12.96735,6.11381 -21.08573,7.2784 -52.76988,7.5676 -15.81813,0.13477 -31.05234,0.074 -33.85327,-0.1788 z"
       inkscape:connector-curvature="0" />
    <path
       style="opacity:1;fill:url(#linearGradient4339);fill-opacity:1;stroke:url(#linearGradient4341);stroke-width:0.592315;stroke-miterlimit:4;stroke-dasharray:none;stroke-opacity:1"
       d="m 157.17231,328.73558 c -6.65991,-0.76008 -20.29164,-3.40258 -20.94526,-4.06077 -0.43274,-0.43587 3.69291,-20.97145 4.46673,-22.23299 0.28526,-0.46345 3.11683,0.0243 7.29533,1.23688 9.64961,2.8176 19.41037,4.2633 28.80889,4.26664 16.24479,0.001 26.74006,-2.39442 31.30284,-7.16053 3.11762,-3.25665 4.04793,-5.86359 4.02695,-11.28517 -0.0216,-6.00608 -1.95752,-9.87546 -7.3708,-14.74082 -4.44817,-3.99772 -6.89789,-5.33271 -32.62327,-17.78 -10.83632,-5.2433 -21.03476,-12.43282 -24.65368,-17.38007 -12.25074,-16.74707 -10.74356,-40.80151 3.36177,-53.66293 10.41449,-9.49572 24.23972,-13.57396 45.9057,-13.54104 12.53276,0.0221 31.88455,2.15715 34.55151,3.81823 0.86976,0.5425 0.76457,2.25776 -0.63458,10.22354 -0.92459,5.2647 -1.84197,10.12625 -2.03913,10.80334 -0.32045,1.09831 -1.06205,1.04296 -6.87119,-0.52099 -17.05431,-4.58831 -37.79215,-4.42667 -47.11926,0.36755 -5.06758,2.60486 -8.60087,8.16177 -8.61668,13.55112 -0.003,3.05401 1.87824,7.57655 4.40076,10.54593 3.14812,3.70582 8.56693,6.83264 22.88886,13.20809 14.98151,6.66895 20.65016,9.62092 27.16352,14.14521 9.40128,6.53082 15.61402,15.06655 18.17447,24.97126 1.52011,5.87779 1.52011,18.07247 0,23.95029 -4.59863,17.78897 -19.61821,28.27875 -44.93336,31.3822 -7.70682,0.94501 -27.84122,0.88865 -36.54048,-0.12014 z"
       id="path4234"
       inkscape:connector-curvature="0" />
    <use
       x="0"
       y="0"
       xlink:href="#path4977-4-4-2"
       id="use4226"
       transform="translate(152.98055)"
       width="100%"
       height="100%"
       style="stroke-width:0.0604444" />
    <use
       x="0"
       y="0"
       xlink:href="#path4977-4-4-2"
       id="use4280"
       transform="translate(267.28019,111.01413)"
       width="100%"
       height="100%"
       style="stroke-width:0.0604444" />
    <use
       x="0"
       y="0"
       xlink:href="#path4977-4-4-2"
       id="use4282"
       transform="translate(267.28019,267.59224)"
       width="100%"
       height="100%"
       style="stroke-width:0.0604444" />
    <use
       x="0"
       y="0"
       xlink:href="#path4977-4-4-2"
       id="use4284"
       transform="translate(152.98055,380.68259)"
       width="100%"
       height="100%"
       style="stroke-width:0.0604444" />
    <use
       x="0"
       y="0"
       xlink:href="#path4977-4-4-2"
       id="use4286"
       transform="translate(2.7050787e-7,380.68259)"
       width="100%"
       height="100%"
       style="stroke-width:0.0604444" />
    <use
       x="0"
       y="0"
       xlink:href="#path4977-4-4-2"
       id="use4288"
       transform="translate(-114.2996,267.59224)"
       width="100%"
       height="100%"
       style="stroke-width:0.0604444" />
    <use
       x="0"
       y="0"
       xlink:href="#path4977-4-4-2"
       id="use4290"
       transform="translate(-114.2996,111.01413)"
       width="100%"
       height="100%"
       style="stroke-width:0.0604444" />
  </g>
</svg>
